<svg xmlns="http://www.w3.org/2000/svg" viewBox="0 0 1157 548" preserveAspectRatio="xMidYMid slice" width="1157" height="548" fill="none">
  <g stroke="#FFFFFF" stroke-opacity="0.06" stroke-width="0.75"><line x1="-31.6" y1="-27.4" x2="136.4" y2="-15.1"/><line x1="-31.6" y1="-27.4" x2="-22.3" y2="103.6"/><line x1="-31.6" y1="-27.4" x2="86.8" y2="88.3"/><line x1="136.4" y1="-15.1" x2="210.1" y2="-0.0"/><line x1="136.4" y1="-15.1" x2="86.8" y2="88.3"/><line x1="210.1" y1="-0.0" x2="332.5" y2="12.1"/><line x1="210.1" y1="-0.0" x2="86.8" y2="88.3"/><line x1="210.1" y1="-0.0" x2="185.5" y2="103.5"/><line x1="210.1" y1="-0.0" x2="293.1" y2="92.5"/><line x1="332.5" y1="12.1" x2="440.4" y2="18.3"/><line x1="332.5" y1="12.1" x2="293.1" y2="92.5"/><line x1="440.4" y1="18.3" x2="499.2" y2="20.4"/><line x1="440.4" y1="18.3" x2="293.1" y2="92.5"/><line x1="440.4" y1="18.3" x2="419.5" y2="81.9"/><line x1="440.4" y1="18.3" x2="499.2" y2="69.3"/><line x1="499.2" y1="20.4" x2="611.2" y2="-10.8"/><line x1="499.2" y1="20.4" x2="499.2" y2="69.3"/><line x1="611.2" y1="-10.8" x2="713.6" y2="13.5"/><line x1="611.2" y1="-10.8" x2="499.2" y2="69.3"/><line x1="611.2" y1="-10.8" x2="639.5" y2="97.6"/><line x1="611.2" y1="-10.8" x2="733.5" y2="109.0"/><line x1="713.6" y1="13.5" x2="841.3" y2="-14.1"/><line x1="713.6" y1="13.5" x2="733.5" y2="109.0"/><line x1="841.3" y1="-14.1" x2="972.9" y2="22.2"/><line x1="841.3" y1="-14.1" x2="733.5" y2="109.0"/><line x1="841.3" y1="-14.1" x2="820.9" y2="80.6"/><line x1="841.3" y1="-14.1" x2="952.4" y2="99.9"/><line x1="972.9" y1="22.2" x2="1047.6" y2="-24.0"/><line x1="972.9" y1="22.2" x2="952.4" y2="99.9"/><line x1="1047.6" y1="-24.0" x2="1180.1" y2="-18.8"/><line x1="1047.6" y1="-24.0" x2="952.4" y2="99.9"/><line x1="1047.6" y1="-24.0" x2="1051.7" y2="89.5"/><line x1="1047.6" y1="-24.0" x2="1167.6" y2="111.3"/><line x1="1180.1" y1="-18.8" x2="1167.6" y2="111.3"/><line x1="-22.3" y1="103.6" x2="86.8" y2="88.3"/><line x1="-22.3" y1="103.6" x2="29.9" y2="199.7"/><line x1="86.8" y1="88.3" x2="185.5" y2="103.5"/><line x1="86.8" y1="88.3" x2="29.9" y2="199.7"/><line x1="86.8" y1="88.3" x2="129.6" y2="209.8"/><line x1="86.8" y1="88.3" x2="218.3" y2="165.2"/><line x1="185.5" y1="103.5" x2="293.1" y2="92.5"/><line x1="185.5" y1="103.5" x2="218.3" y2="165.2"/><line x1="293.1" y1="92.5" x2="419.5" y2="81.9"/><line x1="293.1" y1="92.5" x2="218.3" y2="165.2"/><line x1="293.1" y1="92.5" x2="309.0" y2="177.0"/><line x1="293.1" y1="92.5" x2="436.2" y2="192.9"/><line x1="419.5" y1="81.9" x2="499.2" y2="69.3"/><line x1="419.5" y1="81.9" x2="436.2" y2="192.9"/><line x1="499.2" y1="69.3" x2="639.5" y2="97.6"/><line x1="499.2" y1="69.3" x2="436.2" y2="192.9"/><line x1="499.2" y1="69.3" x2="515.1" y2="165.6"/><line x1="499.2" y1="69.3" x2="633.3" y2="180.6"/><line x1="639.5" y1="97.6" x2="733.5" y2="109.0"/><line x1="639.5" y1="97.6" x2="633.3" y2="180.6"/><line x1="733.5" y1="109.0" x2="820.9" y2="80.6"/><line x1="733.5" y1="109.0" x2="633.3" y2="180.6"/><line x1="733.5" y1="109.0" x2="759.7" y2="207.5"/><line x1="733.5" y1="109.0" x2="828.4" y2="167.9"/><line x1="820.9" y1="80.6" x2="952.4" y2="99.9"/><line x1="820.9" y1="80.6" x2="828.4" y2="167.9"/><line x1="952.4" y1="99.9" x2="1051.7" y2="89.5"/><line x1="952.4" y1="99.9" x2="828.4" y2="167.9"/><line x1="952.4" y1="99.9" x2="954.4" y2="183.0"/><line x1="952.4" y1="99.9" x2="1057.9" y2="209.7"/><line x1="1051.7" y1="89.5" x2="1167.6" y2="111.3"/><line x1="1051.7" y1="89.5" x2="1057.9" y2="209.7"/><line x1="1167.6" y1="111.3" x2="1057.9" y2="209.7"/><line x1="1167.6" y1="111.3" x2="1187.2" y2="173.0"/><line x1="29.9" y1="199.7" x2="129.6" y2="209.8"/><line x1="29.9" y1="199.7" x2="1.2" y2="287.0"/><line x1="29.9" y1="199.7" x2="109.4" y2="296.2"/><line x1="129.6" y1="209.8" x2="218.3" y2="165.2"/><line x1="129.6" y1="209.8" x2="109.4" y2="296.2"/><line x1="218.3" y1="165.2" x2="309.0" y2="177.0"/><line x1="218.3" y1="165.2" x2="109.4" y2="296.2"/><line x1="218.3" y1="165.2" x2="187.5" y2="295.2"/><line x1="218.3" y1="165.2" x2="340.0" y2="297.0"/><line x1="309.0" y1="177.0" x2="436.2" y2="192.9"/><line x1="309.0" y1="177.0" x2="340.0" y2="297.0"/><line x1="436.2" y1="192.9" x2="515.1" y2="165.6"/><line x1="436.2" y1="192.9" x2="340.0" y2="297.0"/><line x1="436.2" y1="192.9" x2="442.3" y2="297.3"/><line x1="436.2" y1="192.9" x2="550.3" y2="295.1"/><line x1="515.1" y1="165.6" x2="633.3" y2="180.6"/><line x1="515.1" y1="165.6" x2="550.3" y2="295.1"/><line x1="633.3" y1="180.6" x2="759.7" y2="207.5"/><line x1="633.3" y1="180.6" x2="550.3" y2="295.1"/><line x1="633.3" y1="180.6" x2="647.6" y2="248.6"/><line x1="633.3" y1="180.6" x2="707.1" y2="273.9"/><line x1="759.7" y1="207.5" x2="828.4" y2="167.9"/><line x1="759.7" y1="207.5" x2="707.1" y2="273.9"/><line x1="828.4" y1="167.9" x2="954.4" y2="183.0"/><line x1="828.4" y1="167.9" x2="707.1" y2="273.9"/><line x1="828.4" y1="167.9" x2="821.4" y2="259.6"/><line x1="828.4" y1="167.9" x2="969.6" y2="266.1"/><line x1="954.4" y1="183.0" x2="1057.9" y2="209.7"/><line x1="954.4" y1="183.0" x2="969.6" y2="266.1"/><line x1="1057.9" y1="209.7" x2="1187.2" y2="173.0"/><line x1="1057.9" y1="209.7" x2="969.6" y2="266.1"/><line x1="1057.9" y1="209.7" x2="1045.3" y2="255.2"/><line x1="1057.9" y1="209.7" x2="1172.3" y2="291.6"/><line x1="1187.2" y1="173.0" x2="1172.3" y2="291.6"/><line x1="1.2" y1="287.0" x2="109.4" y2="296.2"/><line x1="1.2" y1="287.0" x2="9.8" y2="338.0"/><line x1="109.4" y1="296.2" x2="187.5" y2="295.2"/><line x1="109.4" y1="296.2" x2="9.8" y2="338.0"/><line x1="109.4" y1="296.2" x2="119.6" y2="363.4"/><line x1="109.4" y1="296.2" x2="197.1" y2="372.3"/><line x1="187.5" y1="295.2" x2="340.0" y2="297.0"/><line x1="187.5" y1="295.2" x2="197.1" y2="372.3"/><line x1="340.0" y1="297.0" x2="442.3" y2="297.3"/><line x1="340.0" y1="297.0" x2="197.1" y2="372.3"/><line x1="340.0" y1="297.0" x2="337.5" y2="354.9"/><line x1="340.0" y1="297.0" x2="403.7" y2="381.0"/><line x1="442.3" y1="297.3" x2="550.3" y2="295.1"/><line x1="442.3" y1="297.3" x2="403.7" y2="381.0"/><line x1="550.3" y1="295.1" x2="647.6" y2="248.6"/><line x1="550.3" y1="295.1" x2="403.7" y2="381.0"/><line x1="550.3" y1="295.1" x2="538.1" y2="361.7"/><line x1="550.3" y1="295.1" x2="656.0" y2="387.0"/><line x1="647.6" y1="248.6" x2="707.1" y2="273.9"/><line x1="647.6" y1="248.6" x2="656.0" y2="387.0"/><line x1="707.1" y1="273.9" x2="821.4" y2="259.6"/><line x1="707.1" y1="273.9" x2="656.0" y2="387.0"/><line x1="707.1" y1="273.9" x2="735.9" y2="365.8"/><line x1="707.1" y1="273.9" x2="841.3" y2="357.8"/><line x1="821.4" y1="259.6" x2="969.6" y2="266.1"/><line x1="821.4" y1="259.6" x2="841.3" y2="357.8"/><line x1="969.6" y1="266.1" x2="1045.3" y2="255.2"/><line x1="969.6" y1="266.1" x2="841.3" y2="357.8"/><line x1="969.6" y1="266.1" x2="928.6" y2="342.3"/><line x1="969.6" y1="266.1" x2="1034.8" y2="383.1"/><line x1="1045.3" y1="255.2" x2="1172.3" y2="291.6"/><line x1="1045.3" y1="255.2" x2="1034.8" y2="383.1"/><line x1="1172.3" y1="291.6" x2="1034.8" y2="383.1"/><line x1="1172.3" y1="291.6" x2="1182.7" y2="379.3"/><line x1="9.8" y1="338.0" x2="119.6" y2="363.4"/><line x1="9.8" y1="338.0" x2="16.2" y2="478.2"/><line x1="9.8" y1="338.0" x2="92.7" y2="474.0"/><line x1="119.6" y1="363.4" x2="197.1" y2="372.3"/><line x1="119.6" y1="363.4" x2="92.7" y2="474.0"/><line x1="197.1" y1="372.3" x2="337.5" y2="354.9"/><line x1="197.1" y1="372.3" x2="92.7" y2="474.0"/><line x1="197.1" y1="372.3" x2="219.2" y2="463.9"/><line x1="197.1" y1="372.3" x2="332.4" y2="468.5"/><line x1="337.5" y1="354.9" x2="403.7" y2="381.0"/><line x1="337.5" y1="354.9" x2="332.4" y2="468.5"/><line x1="403.7" y1="381.0" x2="538.1" y2="361.7"/><line x1="403.7" y1="381.0" x2="332.4" y2="468.5"/><line x1="403.7" y1="381.0" x2="427.8" y2="445.0"/><line x1="403.7" y1="381.0" x2="528.8" y2="441.9"/><line x1="538.1" y1="361.7" x2="656.0" y2="387.0"/><line x1="538.1" y1="361.7" x2="528.8" y2="441.9"/><line x1="656.0" y1="387.0" x2="735.9" y2="365.8"/><line x1="656.0" y1="387.0" x2="528.8" y2="441.9"/><line x1="656.0" y1="387.0" x2="605.6" y2="460.6"/><line x1="656.0" y1="387.0" x2="733.1" y2="429.9"/><line x1="735.9" y1="365.8" x2="841.3" y2="357.8"/><line x1="735.9" y1="365.8" x2="733.1" y2="429.9"/><line x1="841.3" y1="357.8" x2="928.6" y2="342.3"/><line x1="841.3" y1="357.8" x2="733.1" y2="429.9"/><line x1="841.3" y1="357.8" x2="872.3" y2="479.5"/><line x1="841.3" y1="357.8" x2="942.9" y2="461.5"/><line x1="928.6" y1="342.3" x2="1034.8" y2="383.1"/><line x1="928.6" y1="342.3" x2="942.9" y2="461.5"/><line x1="1034.8" y1="383.1" x2="1182.7" y2="379.3"/><line x1="1034.8" y1="383.1" x2="942.9" y2="461.5"/><line x1="1034.8" y1="383.1" x2="1050.0" y2="465.2"/><line x1="1034.8" y1="383.1" x2="1178.8" y2="453.9"/><line x1="1182.7" y1="379.3" x2="1178.8" y2="453.9"/><line x1="16.2" y1="478.2" x2="92.7" y2="474.0"/><line x1="16.2" y1="478.2" x2="-3.8" y2="570.2"/><line x1="92.7" y1="474.0" x2="219.2" y2="463.9"/><line x1="92.7" y1="474.0" x2="-3.8" y2="570.2"/><line x1="92.7" y1="474.0" x2="131.5" y2="526.8"/><line x1="92.7" y1="474.0" x2="218.7" y2="529.2"/><line x1="219.2" y1="463.9" x2="332.4" y2="468.5"/><line x1="219.2" y1="463.9" x2="218.7" y2="529.2"/><line x1="332.4" y1="468.5" x2="427.8" y2="445.0"/><line x1="332.4" y1="468.5" x2="218.7" y2="529.2"/><line x1="332.4" y1="468.5" x2="286.0" y2="561.2"/><line x1="332.4" y1="468.5" x2="426.6" y2="536.5"/><line x1="427.8" y1="445.0" x2="528.8" y2="441.9"/><line x1="427.8" y1="445.0" x2="426.6" y2="536.5"/><line x1="528.8" y1="441.9" x2="605.6" y2="460.6"/><line x1="528.8" y1="441.9" x2="426.6" y2="536.5"/><line x1="528.8" y1="441.9" x2="542.6" y2="563.8"/><line x1="528.8" y1="441.9" x2="648.2" y2="522.5"/><line x1="605.6" y1="460.6" x2="733.1" y2="429.9"/><line x1="605.6" y1="460.6" x2="648.2" y2="522.5"/><line x1="733.1" y1="429.9" x2="872.3" y2="479.5"/><line x1="733.1" y1="429.9" x2="648.2" y2="522.5"/><line x1="733.1" y1="429.9" x2="735.3" y2="541.7"/><line x1="733.1" y1="429.9" x2="836.7" y2="562.7"/><line x1="872.3" y1="479.5" x2="942.9" y2="461.5"/><line x1="872.3" y1="479.5" x2="836.7" y2="562.7"/><line x1="942.9" y1="461.5" x2="1050.0" y2="465.2"/><line x1="942.9" y1="461.5" x2="836.7" y2="562.7"/><line x1="942.9" y1="461.5" x2="930.5" y2="534.0"/><line x1="942.9" y1="461.5" x2="1038.1" y2="530.1"/><line x1="1050.0" y1="465.2" x2="1178.8" y2="453.9"/><line x1="1050.0" y1="465.2" x2="1038.1" y2="530.1"/><line x1="1178.8" y1="453.9" x2="1038.1" y2="530.1"/><line x1="1178.8" y1="453.9" x2="1166.8" y2="541.8"/><line x1="-3.8" y1="570.2" x2="131.5" y2="526.8"/><line x1="131.5" y1="526.8" x2="218.7" y2="529.2"/><line x1="218.7" y1="529.2" x2="286.0" y2="561.2"/><line x1="286.0" y1="561.2" x2="426.6" y2="536.5"/><line x1="426.6" y1="536.5" x2="542.6" y2="563.8"/><line x1="542.6" y1="563.8" x2="648.2" y2="522.5"/><line x1="648.2" y1="522.5" x2="735.3" y2="541.7"/><line x1="735.3" y1="541.7" x2="836.7" y2="562.7"/><line x1="836.7" y1="562.7" x2="930.5" y2="534.0"/><line x1="930.5" y1="534.0" x2="1038.1" y2="530.1"/><line x1="1038.1" y1="530.1" x2="1166.8" y2="541.8"/></g>
  <g fill="#FFEA9E" fill-opacity="0.10"><circle cx="-31.6" cy="-27.4" r="1.4"/><circle cx="136.4" cy="-15.1" r="1.4"/><circle cx="210.1" cy="-0.0" r="1.4"/><circle cx="332.5" cy="12.1" r="1.4"/><circle cx="440.4" cy="18.3" r="1.4"/><circle cx="499.2" cy="20.4" r="1.4"/><circle cx="611.2" cy="-10.8" r="1.4"/><circle cx="713.6" cy="13.5" r="1.4"/><circle cx="841.3" cy="-14.1" r="1.4"/><circle cx="972.9" cy="22.2" r="1.4"/><circle cx="1047.6" cy="-24.0" r="1.4"/><circle cx="1180.1" cy="-18.8" r="1.4"/><circle cx="-22.3" cy="103.6" r="1.4"/><circle cx="86.8" cy="88.3" r="1.4"/><circle cx="185.5" cy="103.5" r="1.4"/><circle cx="293.1" cy="92.5" r="1.4"/><circle cx="419.5" cy="81.9" r="1.4"/><circle cx="499.2" cy="69.3" r="1.4"/><circle cx="639.5" cy="97.6" r="1.4"/><circle cx="733.5" cy="109.0" r="1.4"/><circle cx="820.9" cy="80.6" r="1.4"/><circle cx="952.4" cy="99.9" r="1.4"/><circle cx="1051.7" cy="89.5" r="1.4"/><circle cx="1167.6" cy="111.3" r="1.4"/><circle cx="29.9" cy="199.7" r="1.4"/><circle cx="129.6" cy="209.8" r="1.4"/><circle cx="218.3" cy="165.2" r="1.4"/><circle cx="309.0" cy="177.0" r="1.4"/><circle cx="436.2" cy="192.9" r="1.4"/><circle cx="515.1" cy="165.6" r="1.4"/><circle cx="633.3" cy="180.6" r="1.4"/><circle cx="759.7" cy="207.5" r="1.4"/><circle cx="828.4" cy="167.9" r="1.4"/><circle cx="954.4" cy="183.0" r="1.4"/><circle cx="1057.9" cy="209.7" r="1.4"/><circle cx="1187.2" cy="173.0" r="1.4"/><circle cx="1.2" cy="287.0" r="1.4"/><circle cx="109.4" cy="296.2" r="1.4"/><circle cx="187.5" cy="295.2" r="1.4"/><circle cx="340.0" cy="297.0" r="1.4"/><circle cx="442.3" cy="297.3" r="1.4"/><circle cx="550.3" cy="295.1" r="1.4"/><circle cx="647.6" cy="248.6" r="1.4"/><circle cx="707.1" cy="273.9" r="1.4"/><circle cx="821.4" cy="259.6" r="1.4"/><circle cx="969.6" cy="266.1" r="1.4"/><circle cx="1045.3" cy="255.2" r="1.4"/><circle cx="1172.3" cy="291.6" r="1.4"/><circle cx="9.8" cy="338.0" r="1.4"/><circle cx="119.6" cy="363.4" r="1.4"/><circle cx="197.1" cy="372.3" r="1.4"/><circle cx="337.5" cy="354.9" r="1.4"/><circle cx="403.7" cy="381.0" r="1.4"/><circle cx="538.1" cy="361.7" r="1.4"/><circle cx="656.0" cy="387.0" r="1.4"/><circle cx="735.9" cy="365.8" r="1.4"/><circle cx="841.3" cy="357.8" r="1.4"/><circle cx="928.6" cy="342.3" r="1.4"/><circle cx="1034.8" cy="383.1" r="1.4"/><circle cx="1182.7" cy="379.3" r="1.4"/><circle cx="16.2" cy="478.2" r="1.4"/><circle cx="92.7" cy="474.0" r="1.4"/><circle cx="219.2" cy="463.9" r="1.4"/><circle cx="332.4" cy="468.5" r="1.4"/><circle cx="427.8" cy="445.0" r="1.4"/><circle cx="528.8" cy="441.9" r="1.4"/><circle cx="605.6" cy="460.6" r="1.4"/><circle cx="733.1" cy="429.9" r="1.4"/><circle cx="872.3" cy="479.5" r="1.4"/><circle cx="942.9" cy="461.5" r="1.4"/><circle cx="1050.0" cy="465.2" r="1.4"/><circle cx="1178.8" cy="453.9" r="1.4"/><circle cx="-3.8" cy="570.2" r="1.4"/><circle cx="131.5" cy="526.8" r="1.4"/><circle cx="218.7" cy="529.2" r="1.4"/><circle cx="286.0" cy="561.2" r="1.4"/><circle cx="426.6" cy="536.5" r="1.4"/><circle cx="542.6" cy="563.8" r="1.4"/><circle cx="648.2" cy="522.5" r="1.4"/><circle cx="735.3" cy="541.7" r="1.4"/><circle cx="836.7" cy="562.7" r="1.4"/><circle cx="930.5" cy="534.0" r="1.4"/><circle cx="1038.1" cy="530.1" r="1.4"/><circle cx="1166.8" cy="541.8" r="1.4"/></g>
</svg>